<svg xmlns="http://www.w3.org/2000/svg" width="512" height="512" viewBox="0 0 512 512">
  <rect width="512" height="512" rx="48" fill="#0c0e12"/>
  <rect x="32" y="32" width="448" height="448" rx="36" fill="none" stroke="#3c465a" stroke-width="8"/>

  <!-- Candles -->
  <g stroke-linecap="round">
    <line x1="196" y1="90" x2="196" y2="300" stroke="#3fc86e" stroke-width="8"/>
    <rect x="180" y="140" width="32" height="120" fill="#3fc86e"/>

    <line x1="256" y1="70" x2="256" y2="330" stroke="#eb5a6e" stroke-width="8"/>
    <rect x="236" y="120" width="40" height="160" fill="#eb5a6e"/>

    <line x1="316" y1="110" x2="316" y2="290" stroke="#3fc86e" stroke-width="8"/>
    <rect x="302" y="150" width="28" height="90" fill="#3fc86e"/>
  </g>

  <!-- Line plot -->
  <polyline fill="none" stroke="#78b4ff" stroke-width="8" points="80,330 120,290 170,305 220,240 280,260 340,210 400,230"/>
  <g fill="#78b4ff">
    <circle cx="80" cy="330" r="6"/>
    <circle cx="120" cy="290" r="6"/>
    <circle cx="170" cy="305" r="6"/>
    <circle cx="220" cy="240" r="6"/>
    <circle cx="280" cy="260" r="6"/>
    <circle cx="340" cy="210" r="6"/>
    <circle cx="400" cy="230" r="6"/>
  </g>

  <!-- Text -->
  <text x="256" y="455" text-anchor="middle" font-size="34" font-family="Arial, sans-serif" fill="#e6e6e6">PyPlot-MT</text>
</svg>
