<svg width="42" height="40" viewBox="0 0 42 40" fill="none" xmlns="http://www.w3.org/2000/svg">
<g clip-path="url(#clip0_2526_57)">
<path d="M2.22644 28.6418C1.05042 24.023 2.34025 19.3664 6.95897 16.7014C10.1361 14.8709 13.9392 14.0458 17.8846 13.8846C18.0268 13.8751 18.1501 13.932 18.245 14.0269C18.3398 14.1312 18.3777 14.2545 18.3683 14.3967L17.951 18.1904C17.932 18.399 17.7708 18.5602 17.5621 18.5982C16.6042 18.7499 15.6748 18.968 14.7833 19.262C14.072 19.4991 13.3797 19.7742 12.7253 20.1251H12.7158L12.6494 20.163H12.6399L12.602 20.182L12.564 20.201L12.5261 20.2199L12.4882 20.2389L12.4502 20.2579L12.4123 20.2768L12.3743 20.2958L12.3364 20.3148L12.2985 20.3337L12.2605 20.3527L12.2416 20.3622L12.2226 20.3717L12.2036 20.3812L12.1847 20.3906H12.1752L12.1657 20.4001L12.1467 20.4096H12.1372L12.1278 20.4191L12.1088 20.4286L12.0993 20.4381H12.0898L12.0709 20.4476L12.0614 20.457L12.0424 20.4665L12.0234 20.476L12.0045 20.4855L11.9855 20.495L11.976 20.5045L11.957 20.5139H11.9476L11.9191 20.5329H11.9096L11.8907 20.5519L11.8812 20.5614C11.8527 20.5803 11.8148 20.6088 11.7863 20.6277C11.6061 20.751 11.4354 20.8838 11.2837 21.0166C10.9423 21.3106 10.6483 21.6425 10.4112 22.0029C10.781 22.9039 11.1983 23.7859 11.6536 24.6585C11.7199 24.7818 11.8243 24.8671 11.957 24.8956C12.0898 24.9335 12.2226 24.9051 12.3364 24.8197L15.4187 22.5625C15.5894 22.4392 15.6558 22.2211 15.5799 22.0219C15.3523 21.4339 15.1627 20.8459 15.0014 20.2579C16.6422 20.5519 18.3303 21.7753 19.421 23.6626C20.5116 25.55 20.7298 27.6175 20.1607 29.1918C19.7434 28.765 19.3356 28.3098 18.9563 27.8356C18.8235 27.6744 18.6053 27.6175 18.4062 27.7028L14.9066 29.2392C14.7738 29.2962 14.6884 29.391 14.6505 29.5238C14.6126 29.6565 14.6315 29.7893 14.6979 29.9126C16.424 32.6345 18.4915 35.0624 20.91 36.8549C20.3694 37.2627 19.8003 37.6326 19.2218 37.9646C14.6031 40.6296 9.92747 39.4251 6.51322 36.0962C4.30344 36.6368 2.10315 35.9539 1.10733 34.2278C0.139956 32.5302 0.652086 30.2825 2.22644 28.6418ZM20.9384 29.9316C21.6213 30.5386 22.361 31.0886 23.1482 31.5534C23.9259 31.9991 24.7131 32.2552 25.5002 32.3121C26.0788 31.5534 26.6383 30.7567 27.1505 29.9411C27.2263 29.8178 27.2453 29.6945 27.2074 29.5522C27.1694 29.4194 27.0746 29.3151 26.9513 29.2677L23.4517 27.7313C23.2525 27.6459 23.0344 27.7028 22.9016 27.8641C22.2851 28.6133 21.6308 29.3056 20.9384 29.9316Z" fill="url(#paint0_linear_2526_57)"/>
<path fill-rule="evenodd" clip-rule="evenodd" d="M14.9445 33.1277L16.1869 32.075C15.6748 31.3921 15.1816 30.6713 14.7169 29.9411C14.641 29.8178 14.622 29.6945 14.6695 29.5522C14.7074 29.4194 14.8022 29.3151 14.9255 29.2677L18.4251 27.7313C18.6148 27.6459 18.8424 27.7028 18.9752 27.8641C19.1269 28.0538 19.2882 28.2434 19.4494 28.4236C19.5063 28.177 19.5348 27.9305 19.5537 27.6744C19.6201 26.451 19.2502 25.1991 18.6433 24.1463C18.0363 23.0936 17.1353 22.1452 16.0446 21.5951C15.8265 21.4813 15.5894 21.3865 15.3428 21.3106C15.4282 21.5572 15.5135 21.8038 15.6084 22.0504C15.6842 22.2495 15.6179 22.4677 15.4471 22.591L12.3648 24.8481C12.251 24.9335 12.1182 24.962 11.9855 24.924C11.8527 24.8956 11.7484 24.8102 11.682 24.6869C11.2742 23.8998 10.8948 23.1031 10.5534 22.3064L9.02646 22.8565C8.79884 23.5583 8.72297 24.2981 8.7609 25.0568L14.2996 26.6691L12.9244 32.2647C13.5503 32.6725 14.2332 32.9665 14.9445 33.1277Z" fill="url(#paint1_radial_2526_57)"/>
<path fill-rule="evenodd" clip-rule="evenodd" d="M8.93167 35.0055C9.55761 34.9486 10.1835 34.8253 10.7716 34.6641L10.4586 33.4881C10.0603 34.0477 9.53864 34.5693 8.93167 35.0055ZM10.6009 33.27H12.1847L13.7306 26.9726L7.50906 25.1706L6.72188 26.5363C8.51436 26.4415 10.1456 27.1528 10.9707 28.5754C11.7769 29.998 11.5777 31.7715 10.6009 33.27ZM6.45633 26.5553L5.59328 25.6922C5.15702 26.1285 4.73973 26.6027 4.37933 27.1148C5.06218 26.8113 5.77348 26.6217 6.45633 26.5553Z" fill="url(#paint2_linear_2526_57)"/>
<path fill-rule="evenodd" clip-rule="evenodd" d="M8.76094 25.0473C8.64713 22.9039 9.52914 20.8838 11.8148 19.5656C13.427 18.6361 15.2385 18.0671 17.0689 17.7446L17.3914 14.833C13.9487 15.0322 10.4206 15.7719 7.43317 17.498C3.1464 19.9734 2.0747 24.2222 3.13691 28.3952C3.65853 27.2286 4.50261 26.0716 5.62173 25.0473L6.53219 25.9578L7.3004 24.6205L8.76094 25.0473ZM17.0594 33.1562C15.561 33.4217 14.1573 33.0518 12.9244 32.2552L12.564 33.7347H11.0181L11.3501 34.9866C9.90851 35.4418 8.47641 35.603 7.21504 35.4703C10.2973 38.4672 14.5177 39.6622 18.795 37.1869C19.2692 36.9118 19.7339 36.6084 20.1797 36.2954C19.0606 35.3754 18.0173 34.3132 17.0594 33.1562ZM23.4137 28.7176C22.8731 29.3626 22.2851 29.979 21.6592 30.548C22.1334 30.9179 22.6265 31.2594 23.1482 31.5628C23.5844 31.8189 24.0302 32.0086 24.4759 32.1414C25.0545 31.4206 25.5856 30.6713 26.0882 29.9031L23.4137 28.7176Z" fill="url(#paint3_radial_2526_57)"/>
<path fill-rule="evenodd" clip-rule="evenodd" d="M9.56707 35.3944C8.75144 35.5177 7.95478 35.5366 7.21503 35.4608C7.88839 36.1152 8.60919 36.6747 9.36791 37.1394C10.7241 37.9361 12.1941 38.4198 13.7116 38.5051C15.3428 38.581 17.0595 38.1732 18.795 37.1774C19.2692 36.9023 19.7339 36.5988 20.1797 36.2859C19.9805 36.1246 19.7909 35.9634 19.6012 35.7927C16.0636 37.7938 12.4312 37.3481 9.56707 35.3944ZM24.2389 32.056C24.3147 32.0845 24.4001 32.1034 24.476 32.1319C25.0165 31.4395 25.5192 30.7188 25.9839 29.9885C25.4433 30.6998 24.8553 31.3921 24.2389 32.056ZM9.01699 17.6023C11.2647 16.2366 13.8064 15.3926 16.3861 14.9089C15.5894 14.9753 14.8023 15.0796 14.0151 15.2219C11.6346 15.6771 9.32049 16.4453 7.27194 17.6972C4.19912 19.5655 2.80496 22.4677 2.76703 25.5879C2.77651 26.5173 2.90929 27.4563 3.14639 28.3952C3.44988 27.7218 3.85768 27.039 4.36982 26.394C4.12324 23.0177 5.53635 19.7078 9.01699 17.6023Z" fill="url(#paint4_radial_2526_57)"/>
<path fill-rule="evenodd" clip-rule="evenodd" d="M1.94185 33.7821C0.927059 32.0276 1.95133 29.5522 4.21802 28.2434C6.4847 26.9346 9.14971 27.295 10.155 29.0401C11.1698 30.7946 10.1456 33.27 7.87885 34.5883C5.61217 35.897 2.94716 35.5367 1.94185 33.7821Z" fill="url(#paint5_radial_2526_57)"/>
<path fill-rule="evenodd" clip-rule="evenodd" d="M9.3205 27.0484L13.7305 26.9726L11.4639 30.7567C11.5018 29.998 11.35 29.2487 10.9612 28.5754C10.5723 27.902 10.0033 27.3899 9.3205 27.0484Z" fill="white"/>
<path d="M39.6504 28.6418C40.8264 24.023 39.5366 19.3664 34.9179 16.7014C34.3393 16.3694 33.7418 16.0659 33.1254 15.8004C32.784 18.8163 31.7123 21.8228 30.2138 24.6869C30.1474 24.8102 30.0431 24.8956 29.9103 24.924C29.7775 24.962 29.6447 24.9335 29.5309 24.8482L26.4486 22.591C26.2779 22.4677 26.2115 22.2495 26.2874 22.0504C26.5055 21.4624 26.7047 20.8744 26.8659 20.2769C25.2157 20.5614 23.5181 21.7943 22.4179 23.6816C21.3273 25.5689 21.1091 27.6365 21.6782 29.2108C22.0955 28.784 22.5033 28.3288 22.8921 27.8546C23.0249 27.6934 23.243 27.6365 23.4422 27.7218L26.9418 29.2582C27.0746 29.3151 27.1599 29.41 27.1979 29.5427C27.2358 29.6755 27.2168 29.8083 27.141 29.9316C26.6193 30.7472 26.0693 31.5439 25.4907 32.3026C25.064 32.2741 24.6372 32.1888 24.2104 32.037H24.2009H24.1914L24.1725 32.0276C24.144 32.0181 24.1061 31.9991 24.0776 31.9896L24.0587 31.9801H24.0492L24.0207 31.9707L24.0017 31.9612H23.9923H23.9828L23.9638 31.9517L23.9448 31.9422L23.9259 31.9327L23.9069 31.9232L23.8595 31.9043L23.8405 31.8948H23.831H23.8216L23.8026 31.8853H23.7931L23.7741 31.8758L23.7552 31.8663L23.7362 31.8568L23.7172 31.8474L23.7077 31.8379L23.6888 31.8284H23.6793L23.6698 31.8189L23.6508 31.8094L23.6414 31.7999H23.6319L23.6129 31.7905L23.6034 31.781L23.5845 31.7715L23.5655 31.762L23.5465 31.7525L23.5275 31.743L23.5181 31.7336L23.4991 31.7241H23.4896H23.4801L23.4612 31.7146H23.4517H23.4422L23.4232 31.7051L23.4043 31.6956L23.3853 31.6861L23.3758 31.6767L23.3568 31.6672L23.3379 31.6577L23.3189 31.6482L23.2999 31.6387L23.2904 31.6292L23.2715 31.6197H23.262H23.2525L23.2335 31.6103L23.2241 31.6008H23.2146L23.1956 31.5913L23.1861 31.5818H23.1766L23.1577 31.5723L23.1482 31.5628L23.1292 31.5534L23.1103 31.5439L23.0723 31.5249L23.0344 31.5059L22.9964 31.487L22.9585 31.468L22.9206 31.449L22.8826 31.4301C22.8352 31.4016 22.7878 31.3732 22.7404 31.3447L22.674 31.3068H22.6645C22.0386 30.9084 21.4506 30.4532 20.891 29.9506C20.1892 29.3246 19.5348 28.6228 18.9278 27.8736C18.795 27.7123 18.5769 27.6554 18.3777 27.7408L14.8781 29.2772C14.7453 29.3341 14.66 29.4289 14.6221 29.5617C14.5841 29.6945 14.6031 29.8273 14.6695 29.9506C16.7844 33.2795 19.402 36.1721 22.5791 38.0025C27.1979 40.6675 31.8735 39.463 35.2877 36.1341C37.4975 36.6747 39.6978 35.9919 40.6936 34.2658C41.7274 32.5302 41.2247 30.2825 39.6504 28.6418ZM26.8659 14.1217C27.2263 14.833 27.4065 15.6581 27.4065 16.5781C27.4065 17.4791 27.3022 18.38 27.122 19.2621C26.2305 18.9681 25.2821 18.7499 24.3147 18.5887C24.1061 18.5508 23.9543 18.3895 23.9259 18.1809L23.5086 14.3873C23.4896 14.245 23.537 14.1217 23.6319 14.0174C23.7267 13.9131 23.85 13.8657 23.9923 13.8751C24.9596 13.9131 25.9175 13.9984 26.8659 14.1217ZM22.9301 31.4206C22.8826 31.3921 22.8352 31.3637 22.7878 31.3352L22.9301 31.4206Z" fill="url(#paint6_linear_2526_57)"/>
<path fill-rule="evenodd" clip-rule="evenodd" d="M26.9228 33.1277L25.6804 32.075C26.1926 31.3921 26.6858 30.6714 27.1505 29.9411C27.2263 29.8178 27.2453 29.6945 27.2074 29.5522C27.1694 29.4195 27.0746 29.3151 26.9513 29.2677L23.4517 27.7313C23.2525 27.6459 23.0344 27.7028 22.9016 27.8641C22.7499 28.0538 22.5886 28.2434 22.4274 28.4236C22.3705 28.1771 22.3421 27.9305 22.3231 27.6744C22.2567 26.451 22.6266 25.1991 23.2336 24.1463C23.8405 23.0936 24.7415 22.1452 25.8322 21.5951C26.0598 21.4813 26.3064 21.377 26.5625 21.3011C26.4771 21.5477 26.3917 21.7943 26.2969 22.0504C26.221 22.2495 26.2874 22.4677 26.4581 22.591L29.5404 24.8482C29.6542 24.9335 29.787 24.962 29.9198 24.924C30.0526 24.8956 30.1569 24.8102 30.2233 24.6869C30.6311 23.9092 31.0105 23.1126 31.3519 22.3064L32.8598 22.847C33.0875 23.5488 33.1633 24.2886 33.1254 25.0473L27.5867 26.6596L28.9619 32.2552C28.3265 32.6725 27.6436 32.9665 26.9228 33.1277Z" fill="url(#paint7_radial_2526_57)"/>
<path fill-rule="evenodd" clip-rule="evenodd" d="M32.9452 35.0055C32.3193 34.9486 31.6933 34.8253 31.1053 34.6641L31.4183 33.4881C31.8166 34.0477 32.3288 34.5693 32.9452 35.0055ZM31.2666 33.27H29.6827L28.1368 26.9726L34.3584 25.1706L35.1455 26.5363C33.353 26.4415 31.7218 27.1528 30.8967 28.5754C30.0905 29.998 30.2897 31.7715 31.2666 33.27ZM35.4111 26.5553L36.2741 25.6922C36.7104 26.1285 37.1277 26.6027 37.4881 27.1148C36.8052 26.8113 36.1034 26.6217 35.4111 26.5553Z" fill="url(#paint8_linear_2526_57)"/>
<path fill-rule="evenodd" clip-rule="evenodd" d="M32.5469 27.0484L28.1368 26.9726L30.4035 30.7567C30.3656 29.998 30.5173 29.2487 30.9062 28.5754C31.295 27.902 31.8641 27.3899 32.5469 27.0484Z" fill="white"/>
<path fill-rule="evenodd" clip-rule="evenodd" d="M30.5362 34.9866L30.8682 33.7347H29.3223L28.9619 32.2552C27.1599 33.4312 24.9691 33.6778 22.6835 32.35C21.0712 31.4206 19.677 30.1308 18.4726 28.7081L15.7886 29.8842C17.6854 32.7673 20.0848 35.4513 23.0818 37.1774C27.3686 39.6527 31.5795 38.4577 34.6618 35.4608C33.4099 35.5935 31.9778 35.4418 30.5362 34.9866ZM34.4531 17.498C33.9789 17.223 33.4953 16.9764 32.9926 16.7488C32.7555 18.1809 32.3667 19.613 31.845 21.0261C32.8124 22.1831 33.1918 23.5868 33.1159 25.0473L34.5764 24.6205L35.3446 25.9578L36.2551 25.0473C37.3742 26.0716 38.2183 27.2286 38.7399 28.3952C39.8116 24.2222 38.7399 19.9734 34.4531 17.498ZM27.2832 18.3421C27.3686 17.7541 27.4065 17.1661 27.4065 16.5781C27.4065 16.0565 27.3496 15.5633 27.2358 15.1081C26.3253 14.9753 25.4054 14.8804 24.4949 14.8235L24.8174 17.7351C25.6425 17.8869 26.4771 18.086 27.2832 18.3421Z" fill="url(#paint9_radial_2526_57)"/>
<path fill-rule="evenodd" clip-rule="evenodd" d="M34.5764 17.6877C34.0643 17.3747 33.5237 17.0902 32.9736 16.8341C32.9262 17.0902 32.8788 17.3463 32.8313 17.6024C36.274 19.6983 37.6966 22.9798 37.4785 26.3371C38.0096 27.001 38.4364 27.6934 38.7494 28.3952C38.7778 28.2719 38.8158 28.1391 38.8347 28.0158C39.6598 24.023 38.4364 20.0303 34.5764 17.6877ZM27.2358 15.1081C26.6383 15.0227 26.0313 14.9468 25.4338 14.8994C26.0503 15.0132 26.6667 15.1555 27.2832 15.3167C27.2642 15.2408 27.2547 15.1745 27.2358 15.1081ZM32.2813 35.3944C29.3222 37.4145 25.5476 37.8223 21.8868 35.603C19.5347 34.171 17.5431 32.1888 15.8739 30.0169C17.7517 32.8527 20.1322 35.4797 23.0818 37.1869C24.7509 38.1542 26.4107 38.5526 27.9945 38.5146C30.2896 38.4103 32.4804 37.4145 34.3108 35.7927C34.4341 35.6884 34.5479 35.5746 34.6618 35.4608C33.922 35.5461 33.1159 35.5177 32.2813 35.3944Z" fill="url(#paint10_radial_2526_57)"/>
<path fill-rule="evenodd" clip-rule="evenodd" d="M39.9349 33.7821C40.9496 32.0276 39.9254 29.5522 37.6587 28.2434C35.392 26.9346 32.727 27.295 31.7217 29.0401C30.7069 30.7946 31.7312 33.27 33.9979 34.5883C36.2645 35.897 38.9201 35.5367 39.9349 33.7821Z" fill="url(#paint11_radial_2526_57)"/>
<path d="M14.7738 19.2621C14.9635 20.1915 15.248 21.1304 15.5989 22.0504C15.6748 22.2495 15.6084 22.4677 15.4377 22.591L12.3554 24.8481C12.2416 24.9335 12.1088 24.962 11.976 24.924C11.8432 24.8956 11.7389 24.8102 11.6725 24.6869C11.2173 23.8144 10.8 22.9229 10.4301 22.0314C10.8664 21.377 11.4829 20.8174 12.2605 20.3717C13.0572 19.907 13.9013 19.5466 14.7738 19.2621ZM25.2631 3.74619C24.6277 1.56486 22.9301 0 20.9479 0C18.9657 0 17.2681 1.56486 16.6327 3.74619C12.0424 5.03602 8.65662 8.47873 8.65662 13.8182C8.65662 14.4726 8.69455 15.1365 8.77042 15.7909C10.5344 15.0227 12.4123 14.5295 14.3186 14.226C15.4851 14.0458 16.6801 13.932 17.8846 13.8846C18.0268 13.8751 18.1501 13.932 18.245 14.0269C18.3398 14.1312 18.3777 14.2545 18.3683 14.3968L17.951 18.1904C17.932 18.399 17.7708 18.5602 17.5621 18.5982C16.9551 18.693 16.3482 18.8163 15.7696 18.9681C16.8318 20.2674 18.7571 21.1304 20.9574 21.1304C23.1482 21.1304 25.0735 20.2674 26.1357 18.9775C25.5477 18.8258 24.9407 18.693 24.3147 18.5982C24.1061 18.5602 23.9543 18.399 23.9259 18.1904L23.5086 14.3968C23.4896 14.2545 23.5371 14.1312 23.6319 14.0269C23.7267 13.9226 23.85 13.8751 23.9923 13.8846C24.9597 13.9226 25.9175 14.0079 26.8659 14.1312C27.1694 14.7287 27.3401 15.4021 27.397 16.1513V16.1703V16.1892V16.2082V16.2272V16.2461V16.2556V16.2651V16.2841V16.2936V16.303V16.322V16.3315V16.3505V16.3694V16.3884V16.4074V16.4263V16.4453V16.4548V16.4643V16.4832V16.4927V16.5022V16.5212V16.5401V16.5591V16.5781V16.616V16.6634V16.7488V16.7867V16.8247V16.91V16.948V16.9859V17.0712V17.1566V17.242C27.397 17.2989 27.3876 17.3558 27.3876 17.4127L27.3781 17.498L27.3686 17.5739C27.3212 18.1335 27.2358 18.693 27.122 19.2431C26.9323 20.1725 26.6478 21.102 26.2969 22.0219C26.221 22.2211 26.2874 22.4392 26.4581 22.5625L29.5404 24.8197C29.6542 24.9051 29.787 24.9335 29.9198 24.8956C30.0526 24.8671 30.1569 24.7818 30.2233 24.6585C32.0537 21.1589 33.2392 17.4506 33.2392 13.7898C33.2392 8.47872 29.8534 5.03602 25.2631 3.74619ZM27.3781 17.4222L27.3876 17.2514C27.3876 17.3083 27.3781 17.3653 27.3781 17.4222Z" fill="url(#paint12_linear_2526_57)"/>
<path fill-rule="evenodd" clip-rule="evenodd" d="M15.0204 12.5284L15.3049 14.0933C16.1585 13.9889 17.0215 13.9226 17.8846 13.8846C18.0268 13.8751 18.1501 13.932 18.245 14.0269C18.3398 14.1312 18.3777 14.2545 18.3683 14.3968L17.951 18.1904C17.932 18.399 17.7708 18.5602 17.5621 18.5982C17.306 18.6361 17.0595 18.6835 16.8129 18.731C17.012 18.9206 17.2207 19.0819 17.4483 19.2336C18.4726 19.907 19.7434 20.2105 20.9574 20.2105C22.1713 20.2105 23.4422 19.907 24.4665 19.2336C24.6846 19.0914 24.9027 18.9206 25.1019 18.7404C24.8458 18.693 24.5898 18.6456 24.3242 18.5982C24.1156 18.5602 23.9638 18.399 23.9354 18.1904L23.5181 14.3968C23.4991 14.2545 23.5465 14.1312 23.6414 14.0269C23.7362 13.9226 23.8595 13.8751 24.0018 13.8846C24.8838 13.9226 25.7468 13.9889 26.6099 14.0933L26.8944 12.5284C26.4012 11.9878 25.8037 11.5421 25.1209 11.2006L20.9574 15.1934L16.7939 11.2006C16.111 11.5326 15.5136 11.9783 15.0204 12.5284Z" fill="url(#paint13_radial_2526_57)"/>
<path fill-rule="evenodd" clip-rule="evenodd" d="M12.27 20.3622C11.8337 20.6183 11.4449 20.9028 11.113 21.2158C11.4544 22.0883 11.8432 22.9419 12.251 23.767L14.6126 22.0314C14.3186 21.2253 14.072 20.4001 13.9013 19.5656C13.3322 19.8027 12.7916 20.0682 12.27 20.3622ZM9.58606 13.8087C9.58606 14.3493 9.61452 14.8804 9.66194 15.421C11.0466 14.8994 12.4881 14.5295 13.9487 14.2829C14.4703 12.8793 15.4851 11.855 16.7844 11.1912L15.6843 10.1384L16.4525 8.80117L15.2006 8.46923C15.523 6.98972 16.1016 5.68092 16.8508 4.64716C12.7253 5.81369 9.58606 8.86755 9.58606 13.8087ZM25.0355 4.64716C25.7847 5.68092 26.3633 6.98972 26.6857 8.46923L25.4338 8.80117L26.202 10.1384L25.1019 11.1912C27.0177 12.168 28.3265 13.932 28.3265 16.5781C28.3265 18.437 27.9092 20.2958 27.2737 22.0409L29.6353 23.7765C31.1812 20.6942 32.3003 17.2704 32.3003 13.8182C32.3192 8.86756 29.1705 5.81369 25.0355 4.64716Z" fill="url(#paint14_radial_2526_57)"/>
<path fill-rule="evenodd" clip-rule="evenodd" d="M11.113 21.2253C11.3975 21.946 11.7105 22.6573 12.0424 23.3402C11.7579 22.6004 11.4923 21.8417 11.2742 21.0735C11.2173 21.1209 11.1604 21.1778 11.113 21.2253ZM32.3003 13.7993C32.3003 10.3945 30.7164 7.77691 28.2885 6.10772C27.3212 5.46281 26.221 4.97912 25.0355 4.6377C25.4718 5.23519 25.8417 5.91804 26.1451 6.67676C29.2749 8.1942 31.4657 11.1722 31.4657 15.3357C31.4657 18.105 30.8018 20.8459 29.806 23.4066C31.2665 20.4286 32.3003 17.1282 32.3003 13.7993ZM10.0033 10.8877C9.73781 11.7792 9.58606 12.756 9.58606 13.8182C9.58606 14.3588 9.61452 14.8899 9.66194 15.4305C9.90852 15.3357 10.1551 15.2503 10.4111 15.165C10.4775 11.0773 12.6589 8.16575 15.7696 6.67676C16.0731 5.92752 16.443 5.24467 16.8698 4.64718C15.2954 5.09293 13.8728 5.80423 12.7063 6.79056C11.4544 7.86225 10.5155 9.23745 10.0033 10.8877Z" fill="url(#paint15_radial_2526_57)"/>
<path fill-rule="evenodd" clip-rule="evenodd" d="M16.3956 6.37329C16.13 6.94233 15.9214 7.5493 15.7696 8.13731L16.9456 8.45028C16.6611 7.82433 16.4714 7.12252 16.3956 6.37329ZM17.0594 8.68738L16.2723 10.0531L20.9479 14.539L25.6235 10.0531L24.8363 8.68738C24.0207 10.2807 22.5886 11.3429 20.9479 11.3429C19.3072 11.3429 17.8751 10.2807 17.0594 8.68738ZM24.9502 8.45028L26.1262 8.13731C25.9744 7.53982 25.7658 6.94233 25.5002 6.37329C25.4244 7.12252 25.2347 7.82433 24.9502 8.45028Z" fill="url(#paint16_linear_2526_57)"/>
<path fill-rule="evenodd" clip-rule="evenodd" d="M23.0913 10.6885L20.9479 14.539L18.8045 10.6885C19.4399 11.1058 20.1702 11.3429 20.9479 11.3429C21.7256 11.3429 22.4558 11.1058 23.0913 10.6885Z" fill="white"/>
<path fill-rule="evenodd" clip-rule="evenodd" d="M20.9479 10.4135C22.968 10.4135 24.6087 8.27957 24.6087 5.67146C24.6087 3.05387 22.968 0.929443 20.9479 0.929443C18.9278 0.929443 17.2871 3.06335 17.2871 5.67146C17.2871 8.28905 18.9373 10.4135 20.9479 10.4135Z" fill="url(#paint17_radial_2526_57)"/>
<path d="M23.1292 15.1744C23.1007 14.9373 22.9111 14.7666 22.674 14.7666C21.4885 14.7571 20.2935 14.8046 19.1175 14.8994C18.8898 14.9184 18.7096 15.0986 18.6907 15.3262L18.5105 17.8015C18.501 17.9343 18.5484 18.0576 18.6338 18.1524C18.7286 18.2473 18.8519 18.2947 18.9847 18.2947C20.2935 18.2568 21.6212 18.2852 22.93 18.4085C23.0723 18.418 23.2051 18.3706 23.3094 18.2757C23.4137 18.1714 23.4517 18.0386 23.4422 17.8964L23.1292 15.1744ZM16.0446 23.3971C15.9783 23.2738 15.8834 23.1979 15.7506 23.1695C15.6178 23.1315 15.4946 23.16 15.3808 23.2359L13.3322 24.63C13.1425 24.7628 13.0761 24.9999 13.171 25.2085C13.6831 26.2802 14.2332 27.333 14.8307 28.3572C14.954 28.5564 15.2006 28.6418 15.4187 28.5469L17.932 27.4468C18.0647 27.3899 18.1596 27.2855 18.1975 27.1433C18.2354 27.001 18.207 26.8682 18.1311 26.7544C17.3534 25.6922 16.6611 24.5541 16.0446 23.3971ZM28.5446 24.6205L26.496 23.2264C26.3822 23.1505 26.2589 23.1221 26.1262 23.16C25.9934 23.1884 25.8891 23.2738 25.8321 23.3876C25.2157 24.5447 24.5233 25.6827 23.7646 26.745C23.6793 26.8588 23.6603 27.001 23.6982 27.1338C23.7362 27.2761 23.831 27.3804 23.9638 27.4373L26.4771 28.5374C26.6952 28.6323 26.9418 28.5469 27.0651 28.3478C27.6626 27.3235 28.2126 26.2708 28.7248 25.1991C28.8006 24.9999 28.7343 24.7533 28.5446 24.6205Z" fill="white"/>
<path fill-rule="evenodd" clip-rule="evenodd" d="M18.9752 17.83L19.1459 15.6012C19.1554 15.459 19.2692 15.3546 19.402 15.3452C20.4073 15.2693 21.4221 15.2313 22.4274 15.2313C22.5696 15.2313 22.6929 15.3357 22.7024 15.4779L22.9395 17.6118C22.949 17.6972 22.9205 17.7731 22.8636 17.8395C22.8067 17.8964 22.7214 17.9343 22.636 17.9248C21.4221 17.811 20.1891 17.7826 18.9752 17.83Z" fill="url(#paint18_radial_2526_57)"/>
<path fill-rule="evenodd" clip-rule="evenodd" d="M15.7791 23.8808C16.3102 24.8671 16.8982 25.825 17.5431 26.745C17.5905 26.8113 17.6095 26.8967 17.5811 26.9821C17.5526 27.0674 17.5052 27.1243 17.4198 27.1623L15.4472 28.0253C15.3144 28.0822 15.1626 28.0348 15.0962 27.9115C14.5936 27.039 14.1194 26.138 13.6831 25.2275C13.6262 25.1042 13.6642 24.9525 13.778 24.8766L15.3713 23.7954C15.4377 23.748 15.5135 23.7385 15.5894 23.7575C15.6843 23.767 15.7412 23.8144 15.7791 23.8808Z" fill="url(#paint19_radial_2526_57)"/>
<path fill-rule="evenodd" clip-rule="evenodd" d="M26.0882 23.8808C25.5571 24.8671 24.9691 25.825 24.3242 26.745C24.2768 26.8113 24.2578 26.8967 24.2863 26.9821C24.3052 27.0674 24.3621 27.1243 24.438 27.1623L26.4107 28.0253C26.5435 28.0822 26.6952 28.0348 26.7616 27.9115C27.2642 27.039 27.7384 26.138 28.1747 25.2275C28.2316 25.1042 28.1937 24.9525 28.0799 24.8766L26.4866 23.7954C26.4202 23.748 26.3443 23.7385 26.2684 23.7575C26.1925 23.767 26.1356 23.8144 26.0882 23.8808Z" fill="url(#paint20_linear_2526_57)"/>
<path d="M20.9384 12.6991C15.3049 12.6991 10.7431 17.2704 10.7431 22.8944C10.7431 28.5279 15.3144 33.0898 20.9384 33.0898C26.5719 33.0898 31.1338 28.5185 31.1338 22.8944C31.1338 17.2609 26.5719 12.6991 20.9384 12.6991Z" fill="#787878"/>
<path d="M20.9384 32.3121C15.7412 32.3121 11.5303 28.1012 11.5303 22.9039C11.5303 17.7067 15.7412 13.4958 20.9384 13.4958C26.1357 13.4958 30.3466 17.7067 30.3466 22.9039C30.3466 28.0917 26.1357 32.3121 20.9384 32.3121Z" fill="white"/>
<path d="M25.2631 24.5162C25.2631 25.9009 24.6372 27.1433 23.5655 28.0063C22.3515 28.9832 20.7582 29.372 19.2313 29.372C18.4915 29.372 17.7233 29.2393 17.031 28.9452L17.1827 27.3045C17.7802 27.5132 18.4251 27.608 19.0226 27.608C20.7013 27.608 22.4843 26.6501 22.4843 24.8102C22.4843 23.729 21.8109 22.9513 20.7487 22.7996C19.715 22.6479 18.4631 23.0462 17.6 23.3117L18.2165 16.0565H24.7415L24.5328 18.2378H20.597L20.3314 20.8838C22.8068 20.4286 25.2631 21.9271 25.2631 24.5162Z" fill="#D9A629"/>
</g>
<defs>
<linearGradient id="paint0_linear_2526_57" x1="3.41227" y1="33.3222" x2="18.7484" y2="23.8571" gradientUnits="userSpaceOnUse">
<stop stop-color="#867F32"/>
<stop offset="1" stop-color="#766D2C"/>
</linearGradient>
<radialGradient id="paint1_radial_2526_57" cx="0" cy="0" r="1" gradientUnits="userSpaceOnUse" gradientTransform="translate(12.9543 27.3414) scale(6.056 6.05599)">
<stop stop-color="#F4E247"/>
<stop offset="1" stop-color="#867F32"/>
</radialGradient>
<linearGradient id="paint2_linear_2526_57" x1="13.8201" y1="27.6693" x2="6.38599" y2="30.9823" gradientUnits="userSpaceOnUse">
<stop stop-color="#F4E247"/>
<stop offset="1" stop-color="#867F32"/>
</linearGradient>
<radialGradient id="paint3_radial_2526_57" cx="0" cy="0" r="1" gradientUnits="userSpaceOnUse" gradientTransform="translate(8.93729 29.7854) rotate(-31.4934) scale(20.5937 13.3557)">
<stop stop-color="#F1E64B"/>
<stop offset="1" stop-color="#C1B63B"/>
</radialGradient>
<radialGradient id="paint4_radial_2526_57" cx="0" cy="0" r="1" gradientUnits="userSpaceOnUse" gradientTransform="translate(5.56522 32.3079) scale(16.3831)">
<stop stop-color="white" stop-opacity="0.6"/>
<stop offset="1" stop-color="white" stop-opacity="0"/>
</radialGradient>
<radialGradient id="paint5_radial_2526_57" cx="0" cy="0" r="1" gradientUnits="userSpaceOnUse" gradientTransform="translate(3.90491 30.6537) scale(5.3915)">
<stop stop-color="#F4E247"/>
<stop offset="1" stop-color="#867F32"/>
</radialGradient>
<linearGradient id="paint6_linear_2526_57" x1="24.4582" y1="22.7477" x2="35.8517" y2="35.686" gradientUnits="userSpaceOnUse">
<stop stop-color="#06608B"/>
<stop offset="1" stop-color="#005383"/>
</linearGradient>
<radialGradient id="paint7_radial_2526_57" cx="0" cy="0" r="1" gradientUnits="userSpaceOnUse" gradientTransform="translate(25.6982 23.3427) scale(6.37458 6.37459)">
<stop stop-color="#70B5E3"/>
<stop offset="1" stop-color="#005379"/>
</radialGradient>
<linearGradient id="paint8_linear_2526_57" x1="27.1045" y1="26.5515" x2="34.7128" y2="30.7452" gradientUnits="userSpaceOnUse">
<stop stop-color="#70B5E3"/>
<stop offset="1" stop-color="#005379"/>
</linearGradient>
<radialGradient id="paint9_radial_2526_57" cx="0" cy="0" r="1" gradientUnits="userSpaceOnUse" gradientTransform="translate(34.8441 31.4273) rotate(34.2494) scale(19.797 12.8735)">
<stop stop-color="#3E9DCB"/>
<stop offset="1" stop-color="#308DBE"/>
</radialGradient>
<radialGradient id="paint10_radial_2526_57" cx="0" cy="0" r="1" gradientUnits="userSpaceOnUse" gradientTransform="translate(36.7333 32.1461) scale(16.3739)">
<stop stop-color="white" stop-opacity="0.6"/>
<stop offset="1" stop-color="white" stop-opacity="0"/>
</radialGradient>
<radialGradient id="paint11_radial_2526_57" cx="0" cy="0" r="1" gradientUnits="userSpaceOnUse" gradientTransform="translate(34.7538 29.6429) scale(6.26871)">
<stop stop-color="#70B5E3"/>
<stop offset="1" stop-color="#005379"/>
</radialGradient>
<linearGradient id="paint12_linear_2526_57" x1="20.9492" y1="-5.11494" x2="20.9492" y2="22.5628" gradientUnits="userSpaceOnUse">
<stop stop-color="#4A7E3B"/>
<stop offset="1" stop-color="#2E4F27"/>
</linearGradient>
<radialGradient id="paint13_radial_2526_57" cx="0" cy="0" r="1" gradientUnits="userSpaceOnUse" gradientTransform="translate(21.0876 20.0772) rotate(-91.7469) scale(9.77125 9.08008)">
<stop stop-color="#96CC80"/>
<stop offset="1" stop-color="#528642"/>
</radialGradient>
<radialGradient id="paint14_radial_2526_57" cx="0" cy="0" r="1" gradientUnits="userSpaceOnUse" gradientTransform="translate(20.9492 8.91893) scale(15.705)">
<stop stop-color="#96CC80"/>
<stop offset="1" stop-color="#4A7E3B"/>
</radialGradient>
<radialGradient id="paint15_radial_2526_57" cx="0" cy="0" r="1" gradientUnits="userSpaceOnUse" gradientTransform="translate(21.0753 5.41217) scale(15.4903)">
<stop stop-color="white" stop-opacity="0.6"/>
<stop offset="1" stop-color="white" stop-opacity="0"/>
</radialGradient>
<linearGradient id="paint16_linear_2526_57" x1="20.9495" y1="13.8729" x2="20.9495" y2="8.01011" gradientUnits="userSpaceOnUse">
<stop stop-color="#96CC80"/>
<stop offset="1" stop-color="#4A7E3B"/>
</linearGradient>
<radialGradient id="paint17_radial_2526_57" cx="0" cy="0" r="1" gradientUnits="userSpaceOnUse" gradientTransform="translate(20.2498 4.12657) scale(5.65212 7.61284)">
<stop stop-color="#92CB7B"/>
<stop offset="0.8683" stop-color="#276F37"/>
<stop offset="1" stop-color="#92CB7B"/>
</radialGradient>
<radialGradient id="paint18_radial_2526_57" cx="0" cy="0" r="1" gradientUnits="userSpaceOnUse" gradientTransform="translate(22.4784 17.3666) scale(4.14232)">
<stop stop-color="#E98A23"/>
<stop offset="1" stop-color="#D75328"/>
</radialGradient>
<radialGradient id="paint19_radial_2526_57" cx="0" cy="0" r="1" gradientUnits="userSpaceOnUse" gradientTransform="translate(15.4242 24.3748) scale(3.10082)">
<stop stop-color="#E98A23"/>
<stop offset="1" stop-color="#D75328"/>
</radialGradient>
<linearGradient id="paint20_linear_2526_57" x1="24.5392" y1="26.9236" x2="27.9282" y2="25.0735" gradientUnits="userSpaceOnUse">
<stop stop-color="#E98A23"/>
<stop offset="0.7366" stop-color="#D75328"/>
<stop offset="1" stop-color="#D75328"/>
</linearGradient>
<clipPath id="clip0_2526_57">
<rect width="42" height="40" fill="white"/>
</clipPath>
</defs>
</svg>
